<svg xmlns="http://www.w3.org/2000/svg" viewBox="0 -0.5 31 7" shape-rendering="crispEdges">
<path stroke="#000000" d="M0 0h3M5 0h1M7 0h2M10 0h1M13 0h2M18 0h1M1 1h1M4 1h1M6 1h1M11 1h1M15 1h1M4 2h1M14 2h2M6 3h1M12 3h1M17 3h1M19 3h1M6 4h1M11 4h2M14 4h2M11 5h2M15 5h1M17 5h1M19 5h1M0 6h2M4 6h1M7 6h7M19 6h1" />
<path stroke="#020000" d="M3 0h1M19 2h1M8 3h1M10 5h1M2 6h1M14 6h1M18 6h1" />
<path stroke="#000200" d="M4 0h1M17 0h1M12 1h1M18 1h1M19 4h1" />
<path stroke="#010000" d="M6 0h1M15 0h2M0 3h1M5 5h1M5 6h2" />
<path stroke="#000100" d="M9 0h1M11 0h1M19 1h1M0 2h1M1 4h1M3 5h2M15 6h1" />
<path stroke="#010100" d="M12 0h1" />
<path stroke="#000002" d="M19 0h1M8 1h1M3 2h1M17 2h1M0 4h1M0 5h1M8 5h1" />
<path stroke="#9f0201" d="M20 0h1" />
<path stroke="#9f0002" d="M21 0h1" />
<path stroke="#9f0000" d="M22 0h2M25 0h1M27 0h2M30 0h1M20 1h1M26 1h2M22 2h2M26 2h1M30 2h1M23 3h2M26 3h1M23 4h2M30 4h1M20 5h1M22 5h3M29 5h1M20 6h1M24 6h7" />
<path stroke="#9d0000" d="M24 0h1M30 3h1M28 4h1" />
<path stroke="#9e0001" d="M26 0h1" />
<path stroke="#9f0103" d="M29 0h1" />
<path stroke="#000201" d="M0 1h1" />
<path stroke="#eeecee" d="M2 1h1M25 2h1M22 3h1M9 4h1M17 4h1M7 5h1" />
<path stroke="#eceeee" d="M3 1h1M3 3h1" />
<path stroke="#eeeeee" d="M5 1h1M7 1h1M13 1h1M16 1h2M22 1h1M1 2h1M5 2h1M7 2h1M9 2h1M11 2h1M13 2h1M21 2h1M2 3h1M9 3h1M11 3h1M13 3h1M16 3h1M18 3h1M25 3h1M29 3h1M3 4h1M13 4h1M21 4h1M25 4h1M27 4h1M29 4h1M1 5h1M9 5h1M14 5h1M16 5h1M18 5h1M21 5h1" />
<path stroke="#eeefee" d="M9 1h1M16 2h1M28 5h1" />
<path stroke="#eeeeef" d="M10 1h1M25 1h1M18 2h1M29 2h1M14 3h1M21 3h1M5 4h1M7 4h1M26 5h1" />
<path stroke="#ececee" d="M14 1h1" />
<path stroke="#eeeeec" d="M21 1h1M5 3h1M27 3h1M10 4h1" />
<path stroke="#eeefec" d="M23 1h1" />
<path stroke="#9f0100" d="M24 1h1M20 2h1M21 6h1M23 6h1" />
<path stroke="#9f0200" d="M28 1h1M27 2h2M27 5h1" />
<path stroke="#ececec" d="M29 1h1" />
<path stroke="#9d0200" d="M30 1h1" />
<path stroke="#030000" d="M2 2h1" />
<path stroke="#000001" d="M6 2h1M8 2h1M12 2h1M4 4h1M18 4h1" />
<path stroke="#000202" d="M10 2h1M3 6h1" />
<path stroke="#9d0001" d="M24 2h1" />
<path stroke="#eeeced" d="M1 3h1" />
<path stroke="#020002" d="M4 3h1" />
<path stroke="#eeecec" d="M7 3h1" />
<path stroke="#020200" d="M10 3h1M16 6h1" />
<path stroke="#000102" d="M15 3h1" />
<path stroke="#9e0201" d="M20 3h1" />
<path stroke="#9e0002" d="M28 3h1" />
<path stroke="#030100" d="M2 4h1" />
<path stroke="#020001" d="M8 4h1" />
<path stroke="#efeeee" d="M16 4h1M2 5h1M13 5h1" />
<path stroke="#9f0102" d="M20 4h1" />
<path stroke="#9e0000" d="M22 4h1" />
<path stroke="#9d0002" d="M26 4h1" />
<path stroke="#eeefef" d="M6 5h1" />
<path stroke="#9d0202" d="M25 5h1" />
<path stroke="#9f0001" d="M30 5h1" />
<path stroke="#020100" d="M17 6h1" />
<path stroke="#9c0200" d="M22 6h1" />
</svg>
